<?xml version="1.0" standalone="no"?>
<!DOCTYPE svg PUBLIC "-//W3C//DTD SVG 20010904//EN"
 "http://www.w3.org/TR/2001/REC-SVG-20010904/DTD/svg10.dtd">
<svg version="1.0" xmlns="http://www.w3.org/2000/svg"
 width="700.000000pt" height="700.000000pt" viewBox="0 0 700.000000 700.000000"
 preserveAspectRatio="xMidYMid meet">
<metadata>
Created by potrace 1.14, written by Peter Selinger 2001-2017
</metadata>
<g transform="translate(0.000000,700.000000) scale(0.100000,-0.100000)"
fill="#000000" stroke="none">
<path d="M2037 6977 c-2 -7 -2 -120 -1 -252 1 -132 4 -441 6 -687 l3 -448 150
-66 c83 -37 182 -82 222 -100 40 -19 74 -34 77 -34 4 0 71 -30 191 -85 28 -13
106 -48 175 -78 69 -30 150 -66 180 -80 30 -14 138 -62 240 -107 102 -45 210
-93 240 -107 30 -13 149 -66 265 -118 115 -51 240 -107 278 -124 37 -17 69
-31 72 -31 2 0 39 -16 82 -36 43 -20 159 -72 258 -116 99 -44 200 -89 225
-100 25 -12 63 -29 85 -38 51 -22 129 -57 180 -81 84 -38 178 -79 184 -79 3 0
7 174 9 388 2 213 5 523 6 688 l3 302 -42 20 c-24 11 -227 102 -451 202 -225
100 -427 190 -449 200 -22 10 -146 65 -275 123 -236 105 -500 223 -575 257
-22 10 -101 45 -175 78 -74 33 -155 69 -180 80 -25 11 -133 59 -240 107 -107
48 -213 95 -235 105 -22 10 -103 46 -180 80 -77 34 -165 73 -195 86 -30 14
-72 33 -92 43 -25 13 -38 16 -41 8z"/>
<path d="M2034 3853 c3 -383 9 -700 13 -703 4 -4 62 -31 128 -60 66 -29 203
-90 305 -135 102 -46 307 -137 455 -203 149 -66 295 -131 325 -145 30 -13 114
-50 185 -82 72 -32 167 -75 213 -96 46 -22 85 -39 87 -39 4 0 28 -10 173 -76
316 -144 1225 -544 1228 -542 2 2 5 314 6 693 l3 689 -410 182 c-403 180 -445
199 -575 257 -36 16 -83 37 -105 47 -57 25 -97 43 -410 183 -154 68 -467 208
-695 310 -228 101 -462 206 -520 232 -58 26 -125 56 -150 67 -63 28 -114 51
-193 87 l-68 31 5 -697z"/>
<path d="M3160 1917 c-14 -6 -61 -27 -105 -48 -44 -20 -134 -60 -200 -89 -66
-29 -145 -64 -175 -77 -79 -36 -491 -220 -580 -259 l-75 -33 1 -318 c5 -932 7
-1073 18 -1073 6 0 36 12 66 26 30 14 138 63 240 109 188 84 255 114 368 166
35 16 65 29 67 29 3 0 35 14 72 31 73 33 148 67 448 202 105 46 216 97 248
111 59 27 151 68 202 91 17 7 57 26 90 40 157 70 347 156 415 187 41 19 175
79 298 134 l223 99 -58 27 c-32 14 -263 115 -513 223 -250 108 -475 206 -500
217 -145 66 -505 218 -514 217 -6 0 -22 -5 -36 -12z"/>
</g>
</svg>
